<mxfile host="app.diagrams.net" agent="Mozilla/5.0 (Windows NT 10.0; Win64; x64) AppleWebKit/537.36 (KHTML, like Gecko) Chrome/130.0.0.0 Safari/537.36" version="24.8.3">
  <diagram name="Strona-1" id="WtAhb_zsk_oFHH4tjgnX">
    <mxGraphModel>
      <root>
        <mxCell id="0" />
        <mxCell id="1" parent="0" />
        <mxCell id="2" value="Client" style="whiteSpace=wrap;strokeWidth=2;" vertex="1" parent="1">
          <mxGeometry x="8" y="8" width="3073" height="142" as="geometry" />
        </mxCell>
        <mxCell id="3" value="External Services" style="whiteSpace=wrap;strokeWidth=2;" vertex="1" parent="1">
          <mxGeometry x="2638" y="245" width="228" height="447" as="geometry" />
        </mxCell>
        <mxCell id="4" value="Database" style="whiteSpace=wrap;strokeWidth=2;" vertex="1" parent="1">
          <mxGeometry x="2212" y="455" width="376" height="292" as="geometry" />
        </mxCell>
        <mxCell id="5" value="API Server" style="whiteSpace=wrap;strokeWidth=2;" vertex="1" parent="1">
          <mxGeometry x="155" y="224" width="1873" height="476" as="geometry" />
        </mxCell>
        <mxCell id="6" value="Request" style="ellipse;aspect=fixed;strokeWidth=2;whiteSpace=wrap;" vertex="1" parent="1">
          <mxGeometry x="33" y="43" width="72" height="72" as="geometry" />
        </mxCell>
        <mxCell id="7" value="Authenticate" style="rhombus;strokeWidth=2;whiteSpace=wrap;" vertex="1" parent="1">
          <mxGeometry x="180" y="321" width="142" height="142" as="geometry" />
        </mxCell>
        <mxCell id="8" value="Validate Request" style="rhombus;strokeWidth=2;whiteSpace=wrap;" vertex="1" parent="1">
          <mxGeometry x="455" y="367" width="169" height="169" as="geometry" />
        </mxCell>
        <mxCell id="9" value="Process Order" style="rhombus;strokeWidth=2;whiteSpace=wrap;" vertex="1" parent="1">
          <mxGeometry x="802" y="437" width="147" height="147" as="geometry" />
        </mxCell>
        <mxCell id="10" value="Authorize Payment" style="rhombus;strokeWidth=2;whiteSpace=wrap;" vertex="1" parent="1">
          <mxGeometry x="1119" y="418" width="185" height="185" as="geometry" />
        </mxCell>
        <mxCell id="11" value="Prepare Parcel" style="rhombus;strokeWidth=2;whiteSpace=wrap;" vertex="1" parent="1">
          <mxGeometry x="1502" y="497" width="153" height="153" as="geometry" />
        </mxCell>
        <mxCell id="12" value="Send Confirmation" style="rhombus;strokeWidth=2;whiteSpace=wrap;" vertex="1" parent="1">
          <mxGeometry x="1822" y="483" width="181" height="181" as="geometry" />
        </mxCell>
        <mxCell id="13" value="Save Order" style="ellipse;aspect=fixed;strokeWidth=2;whiteSpace=wrap;" vertex="1" parent="1">
          <mxGeometry x="2248" y="527" width="94" height="94" as="geometry" />
        </mxCell>
        <mxCell id="14" value="Update Order Status" style="ellipse;aspect=fixed;strokeWidth=2;whiteSpace=wrap;" vertex="1" parent="1">
          <mxGeometry x="2402" y="551" width="161" height="161" as="geometry" />
        </mxCell>
        <mxCell id="15" value="Payment Gateway" style="rhombus;strokeWidth=2;whiteSpace=wrap;" vertex="1" parent="1">
          <mxGeometry x="2663" y="280" width="178" height="178" as="geometry" />
        </mxCell>
        <mxCell id="16" value="SMS Service" style="rhombus;strokeWidth=2;whiteSpace=wrap;" vertex="1" parent="1">
          <mxGeometry x="2686" y="508" width="132" height="132" as="geometry" />
        </mxCell>
        <mxCell id="17" value="Payment Failed" style="rounded=1;arcSize=40;strokeWidth=2" vertex="1" parent="1">
          <mxGeometry x="2916" y="55" width="140" height="49" as="geometry" />
        </mxCell>
        <mxCell id="18" value="" style="curved=1;startArrow=none;endArrow=block;exitX=1;exitY=0.5;entryX=0.35;entryY=0;" edge="1" parent="1" source="6" target="7">
          <mxGeometry relative="1" as="geometry">
            <Array as="points">
              <mxPoint x="155" y="79" />
            </Array>
          </mxGeometry>
        </mxCell>
        <mxCell id="19" value="Unauthorized" style="curved=1;startArrow=none;endArrow=block;exitX=1;exitY=0.15;entryX=0.03;entryY=-0.01;" edge="1" parent="1" source="7" target="17">
          <mxGeometry relative="1" as="geometry">
            <Array as="points">
              <mxPoint x="389" y="298" />
              <mxPoint x="2028" y="298" />
              <mxPoint x="2120" y="43" />
              <mxPoint x="2891" y="43" />
            </Array>
          </mxGeometry>
        </mxCell>
        <mxCell id="20" value="Authorized" style="curved=1;startArrow=none;endArrow=block;exitX=1;exitY=0.72;entryX=0;entryY=0.5;" edge="1" parent="1" source="7" target="8">
          <mxGeometry relative="1" as="geometry">
            <Array as="points">
              <mxPoint x="389" y="452" />
            </Array>
          </mxGeometry>
        </mxCell>
        <mxCell id="21" value="Validation Failed" style="curved=1;startArrow=none;endArrow=block;exitX=1;exitY=0.26;entryX=0;entryY=0.25;" edge="1" parent="1" source="8" target="17">
          <mxGeometry relative="1" as="geometry">
            <Array as="points">
              <mxPoint x="713" y="369" />
              <mxPoint x="2028" y="369" />
              <mxPoint x="2120" y="63" />
              <mxPoint x="2891" y="63" />
            </Array>
          </mxGeometry>
        </mxCell>
        <mxCell id="22" value="Validation Passed" style="curved=1;startArrow=none;endArrow=block;exitX=1;exitY=0.67;entryX=0;entryY=0.5;" edge="1" parent="1" source="8" target="9">
          <mxGeometry relative="1" as="geometry">
            <Array as="points">
              <mxPoint x="713" y="511" />
            </Array>
          </mxGeometry>
        </mxCell>
        <mxCell id="23" value="Order Processed" style="curved=1;startArrow=none;endArrow=block;exitX=1;exitY=0.5;entryX=0;entryY=0.5;" edge="1" parent="1" source="9" target="10">
          <mxGeometry relative="1" as="geometry">
            <Array as="points" />
          </mxGeometry>
        </mxCell>
        <mxCell id="24" value="Payment Authorized" style="curved=1;startArrow=none;endArrow=block;exitX=1;exitY=0.67;entryX=0;entryY=0.5;" edge="1" parent="1" source="10" target="11">
          <mxGeometry relative="1" as="geometry">
            <Array as="points">
              <mxPoint x="1403" y="574" />
            </Array>
          </mxGeometry>
        </mxCell>
        <mxCell id="25" value="Payment Failed" style="curved=1;startArrow=none;endArrow=block;exitX=1;exitY=0.34;entryX=0;entryY=0.72;" edge="1" parent="1" source="10" target="17">
          <mxGeometry relative="1" as="geometry">
            <Array as="points">
              <mxPoint x="1403" y="448" />
              <mxPoint x="2028" y="448" />
              <mxPoint x="2120" y="95" />
              <mxPoint x="2891" y="95" />
            </Array>
          </mxGeometry>
        </mxCell>
        <mxCell id="26" value="Parcel Prepared" style="curved=1;startArrow=none;endArrow=block;exitX=1;exitY=0.5;entryX=0;entryY=0.5;" edge="1" parent="1" source="11" target="12">
          <mxGeometry relative="1" as="geometry">
            <Array as="points" />
          </mxGeometry>
        </mxCell>
        <mxCell id="27" value="Confirmation Sent" style="curved=1;startArrow=none;endArrow=block;exitX=1;exitY=0.5;entryX=0;entryY=0.5;" edge="1" parent="1" source="12" target="13">
          <mxGeometry relative="1" as="geometry">
            <Array as="points" />
          </mxGeometry>
        </mxCell>
        <mxCell id="28" value="" style="curved=1;startArrow=none;endArrow=block;exitX=0.99;exitY=0.85;entryX=0;entryY=0.5;" edge="1" parent="1" source="13" target="14">
          <mxGeometry relative="1" as="geometry">
            <Array as="points">
              <mxPoint x="2377" y="632" />
            </Array>
          </mxGeometry>
        </mxCell>
        <mxCell id="29" value="" style="curved=1;startArrow=none;endArrow=block;exitX=0.99;exitY=0.14;entryX=0;entryY=0.24;" edge="1" parent="1" source="13" target="16">
          <mxGeometry relative="1" as="geometry">
            <Array as="points">
              <mxPoint x="2377" y="516" />
              <mxPoint x="2638" y="516" />
            </Array>
          </mxGeometry>
        </mxCell>
        <mxCell id="30" value="" style="curved=1;startArrow=none;endArrow=block;exitX=1;exitY=0.5;entryX=0;entryY=0.75;" edge="1" parent="1" source="14" target="16">
          <mxGeometry relative="1" as="geometry">
            <Array as="points">
              <mxPoint x="2638" y="632" />
            </Array>
          </mxGeometry>
        </mxCell>
        <mxCell id="31" value="" style="curved=1;startArrow=none;endArrow=block;exitX=1;exitY=0.5;entryX=0.03;entryY=0.99;" edge="1" parent="1" source="16" target="17">
          <mxGeometry relative="1" as="geometry">
            <Array as="points">
              <mxPoint x="2866" y="574" />
              <mxPoint x="2891" y="115" />
            </Array>
          </mxGeometry>
        </mxCell>
      </root>
    </mxGraphModel>
  </diagram>
</mxfile>
